<svg width="458" height="278" viewBox="0 0 458 278" fill="none" xmlns="http://www.w3.org/2000/svg">
<circle cx="5.50132" cy="5.50132" r="5.50132" fill="#D9D9D9" fill-opacity="0.1"/>
<circle cx="5.50132" cy="158.071" r="5.50132" fill="#D9D9D9" fill-opacity="0.1"/>
<circle cx="5.50132" cy="81.7862" r="5.50132" fill="#D9D9D9" fill-opacity="0.1"/>
<circle cx="5.50132" cy="234.356" r="5.50132" fill="#D9D9D9" fill-opacity="0.1"/>
<circle cx="5.50132" cy="43.6439" r="5.50132" fill="#D9D9D9" fill-opacity="0.1"/>
<circle cx="5.50132" cy="196.214" r="5.50132" fill="#D9D9D9" fill-opacity="0.1"/>
<circle cx="5.50132" cy="119.929" r="5.50132" fill="#D9D9D9" fill-opacity="0.1"/>
<circle cx="5.50132" cy="272.499" r="5.50132" fill="#D9D9D9" fill-opacity="0.1"/>
<circle cx="196.947" cy="5.50132" r="5.50132" fill="#D9D9D9" fill-opacity="0.1"/>
<circle cx="196.947" cy="158.071" r="5.50132" fill="#D9D9D9" fill-opacity="0.1"/>
<circle cx="196.947" cy="81.7862" r="5.50132" fill="#D9D9D9" fill-opacity="0.1"/>
<circle cx="196.947" cy="234.356" r="5.50132" fill="#D9D9D9" fill-opacity="0.1"/>
<circle cx="196.947" cy="43.6439" r="5.50132" fill="#D9D9D9" fill-opacity="0.1"/>
<circle cx="196.947" cy="196.214" r="5.50132" fill="#D9D9D9" fill-opacity="0.1"/>
<circle cx="196.947" cy="119.929" r="5.50132" fill="#D9D9D9" fill-opacity="0.1"/>
<circle cx="196.947" cy="272.499" r="5.50132" fill="#D9D9D9" fill-opacity="0.1"/>
<circle cx="69.3166" cy="5.50132" r="5.50132" fill="#D9D9D9" fill-opacity="0.1"/>
<circle cx="69.3166" cy="158.071" r="5.50132" fill="#D9D9D9" fill-opacity="0.1"/>
<circle cx="69.3166" cy="81.7862" r="5.50132" fill="#D9D9D9" fill-opacity="0.1"/>
<circle cx="69.3166" cy="234.356" r="5.50132" fill="#D9D9D9" fill-opacity="0.1"/>
<circle cx="69.3166" cy="43.6439" r="5.50132" fill="#D9D9D9" fill-opacity="0.1"/>
<circle cx="69.3166" cy="196.214" r="5.50132" fill="#D9D9D9" fill-opacity="0.1"/>
<circle cx="69.3166" cy="119.929" r="5.50132" fill="#D9D9D9" fill-opacity="0.1"/>
<circle cx="69.3166" cy="272.499" r="5.50132" fill="#D9D9D9" fill-opacity="0.1"/>
<circle cx="260.763" cy="5.50132" r="5.50132" fill="#D9D9D9" fill-opacity="0.1"/>
<circle cx="260.763" cy="158.071" r="5.50132" fill="#D9D9D9" fill-opacity="0.1"/>
<circle cx="260.763" cy="81.7862" r="5.50132" fill="#D9D9D9" fill-opacity="0.1"/>
<circle cx="260.763" cy="234.356" r="5.50132" fill="#D9D9D9" fill-opacity="0.1"/>
<circle cx="260.763" cy="43.6439" r="5.50132" fill="#D9D9D9" fill-opacity="0.1"/>
<circle cx="260.763" cy="196.214" r="5.50132" fill="#D9D9D9" fill-opacity="0.1"/>
<circle cx="260.763" cy="119.929" r="5.50132" fill="#D9D9D9" fill-opacity="0.1"/>
<circle cx="260.763" cy="272.499" r="5.50132" fill="#D9D9D9" fill-opacity="0.1"/>
<circle cx="388.393" cy="5.50132" r="5.50132" fill="#D9D9D9" fill-opacity="0.1"/>
<circle cx="388.393" cy="158.071" r="5.50132" fill="#D9D9D9" fill-opacity="0.1"/>
<circle cx="388.393" cy="81.7862" r="5.50132" fill="#D9D9D9" fill-opacity="0.1"/>
<circle cx="388.393" cy="234.356" r="5.50132" fill="#D9D9D9" fill-opacity="0.1"/>
<circle cx="388.393" cy="43.6439" r="5.50132" fill="#D9D9D9" fill-opacity="0.1"/>
<circle cx="388.393" cy="196.214" r="5.50132" fill="#D9D9D9" fill-opacity="0.1"/>
<circle cx="388.393" cy="119.929" r="5.50132" fill="#D9D9D9" fill-opacity="0.1"/>
<circle cx="388.393" cy="272.499" r="5.50132" fill="#D9D9D9" fill-opacity="0.1"/>
<circle cx="133.132" cy="5.50132" r="5.50132" fill="#D9D9D9" fill-opacity="0.1"/>
<circle cx="133.132" cy="158.071" r="5.50132" fill="#D9D9D9" fill-opacity="0.1"/>
<circle cx="133.132" cy="81.7862" r="5.50132" fill="#D9D9D9" fill-opacity="0.1"/>
<circle cx="133.132" cy="234.356" r="5.50132" fill="#D9D9D9" fill-opacity="0.1"/>
<circle cx="133.132" cy="43.6439" r="5.50132" fill="#D9D9D9" fill-opacity="0.1"/>
<circle cx="133.132" cy="196.214" r="5.50132" fill="#D9D9D9" fill-opacity="0.1"/>
<circle cx="133.132" cy="119.929" r="5.50132" fill="#D9D9D9" fill-opacity="0.1"/>
<circle cx="133.132" cy="272.499" r="5.50132" fill="#D9D9D9" fill-opacity="0.1"/>
<circle cx="324.578" cy="5.50132" r="5.50132" fill="#D9D9D9" fill-opacity="0.1"/>
<circle cx="324.578" cy="158.071" r="5.50132" fill="#D9D9D9" fill-opacity="0.1"/>
<circle cx="324.578" cy="81.7862" r="5.50132" fill="#D9D9D9" fill-opacity="0.1"/>
<circle cx="324.578" cy="234.356" r="5.50132" fill="#D9D9D9" fill-opacity="0.1"/>
<circle cx="324.578" cy="43.6439" r="5.50132" fill="#D9D9D9" fill-opacity="0.1"/>
<circle cx="324.578" cy="196.214" r="5.50132" fill="#D9D9D9" fill-opacity="0.1"/>
<circle cx="324.578" cy="119.929" r="5.50132" fill="#D9D9D9" fill-opacity="0.1"/>
<circle cx="324.578" cy="272.499" r="5.50132" fill="#D9D9D9" fill-opacity="0.1"/>
<circle cx="452.208" cy="5.50132" r="5.50132" fill="#D9D9D9" fill-opacity="0.1"/>
<circle cx="452.208" cy="158.071" r="5.50132" fill="#D9D9D9" fill-opacity="0.1"/>
<circle cx="452.208" cy="81.7862" r="5.50132" fill="#D9D9D9" fill-opacity="0.1"/>
<circle cx="452.208" cy="234.356" r="5.50132" fill="#D9D9D9" fill-opacity="0.1"/>
<circle cx="452.208" cy="43.6439" r="5.50132" fill="#D9D9D9" fill-opacity="0.1"/>
<circle cx="452.208" cy="196.214" r="5.50132" fill="#D9D9D9" fill-opacity="0.1"/>
<circle cx="452.208" cy="119.929" r="5.50132" fill="#D9D9D9" fill-opacity="0.1"/>
<circle cx="452.208" cy="272.499" r="5.50132" fill="#D9D9D9" fill-opacity="0.1"/>
</svg>
