<svg width="1233" height="1026" viewBox="0 0 1233 1026" fill="none" xmlns="http://www.w3.org/2000/svg">
<path d="M-368 26.0274C-226.167 -9.13926 82.8 -32.3726 184 156.027C310.5 391.527 373.5 620.027 619.5 743.027C865.5 866.027 1073.5 867.5 1189.5 1089C1202 1119.67 1227.9 1189.7 1231.5 1224.5" stroke="black" stroke-opacity="0.05" stroke-width="3"/>
<path d="M-407 26.0274C-265.167 -9.13926 43.8 -32.3726 145 156.027C271.5 391.527 334.5 620.027 580.5 743.027C826.5 866.027 1033.5 869.027 1149.5 1090.53C1164.83 1114.02 1195.5 1168.1 1195.5 1196.5" stroke="black" stroke-opacity="0.05" stroke-width="3"/>
<path d="M-407 82.0547C-265.167 46.8881 43.8 23.6548 145 212.055C271.5 447.555 334.5 676.055 580.5 799.055C826.5 922.055 1033.5 925.055 1149.5 1146.55" stroke="black" stroke-opacity="0.05" stroke-width="3"/>
<path d="M-442 82.0547C-300.167 46.8881 8.8 23.6548 110 212.055C236.5 447.555 299.5 676.055 545.5 799.055C791.5 922.055 998.5 925.055 1114.5 1146.55" stroke="black" stroke-opacity="0.05" stroke-width="3"/>
<path d="M-442 138.055C-300.167 102.888 8.8 79.6548 110 268.055C236.5 503.555 299.5 732.055 545.5 855.055C791.5 978.055 998.5 981.055 1114.5 1202.55" stroke="black" stroke-opacity="0.05" stroke-width="3"/>
<path d="M-484 138.027C-342.167 102.861 -33.2 79.6274 68 268.027C194.5 503.527 257.5 732.027 503.5 855.027C749.5 978.027 956.5 981.027 1072.5 1202.53" stroke="black" stroke-opacity="0.05" stroke-width="3"/>
<path d="M-523 138.027C-381.167 102.861 -72.2 79.6274 29 268.027C155.5 503.527 218.5 732.027 464.5 855.027C710.5 978.027 917.5 981.027 1033.5 1202.53" stroke="black" stroke-opacity="0.05" stroke-width="3"/>
<path d="M-523 194.055C-381.167 158.888 -72.2 135.655 29 324.055C155.5 559.555 218.5 788.055 464.5 911.055C710.5 1034.05 917.5 1037.05 1033.5 1258.55" stroke="black" stroke-opacity="0.05" stroke-width="3"/>
<path d="M-558 194.055C-416.167 158.888 -107.2 135.655 -6 324.055C120.5 559.555 183.5 788.055 429.5 911.055C675.5 1034.05 882.5 1037.05 998.5 1258.55" stroke="black" stroke-opacity="0.05" stroke-width="3"/>
<path d="M-558 250.055C-416.167 214.888 -107.2 191.655 -6 380.055C120.5 615.555 183.5 844.055 429.5 967.055C675.5 1090.05 882.5 1093.05 998.5 1314.55" stroke="black" stroke-opacity="0.05" stroke-width="3"/>
<path d="M-608 222.027C-466.167 186.861 -157.2 163.627 -56 352.027C70.5 587.527 133.5 816.027 379.5 939.027C625.5 1062.03 832.5 1065.03 948.5 1286.53" stroke="black" stroke-opacity="0.05" stroke-width="3"/>
<path d="M-647 222.027C-505.167 186.861 -196.2 163.627 -95 352.027C31.5 587.527 94.5 816.027 340.5 939.027C586.5 1062.03 793.5 1065.03 909.5 1286.53" stroke="black" stroke-opacity="0.05" stroke-width="3"/>
<path d="M-647 278.055C-505.167 242.888 -196.2 219.655 -95 408.055C31.5 643.555 94.5 872.055 340.5 995.055C586.5 1118.05 793.5 1121.05 909.5 1342.55" stroke="black" stroke-opacity="0.05" stroke-width="3"/>
<path d="M-682 278.055C-540.167 242.888 -231.2 219.655 -130 408.055C-3.5 643.555 59.5 872.055 305.5 995.055C551.5 1118.05 758.5 1121.05 874.5 1342.55" stroke="black" stroke-opacity="0.05" stroke-width="3"/>
<path d="M-682 334.055C-540.167 298.888 -231.2 275.655 -130 464.055C-3.5 699.555 59.5 928.055 305.5 1051.05C551.5 1174.05 758.5 1177.05 874.5 1398.55" stroke="black" stroke-opacity="0.05" stroke-width="3"/>
</svg>
