<svg width="21" height="31" viewBox="0 0 21 31" fill="none" xmlns="http://www.w3.org/2000/svg">
<path d="M10.4693 0C4.68126 0 0 4.70161 0 10.5148C0 18.4009 10.4693 30.0423 10.4693 30.0423C10.4693 30.0423 20.9385 18.4009 20.9385 10.5148C20.9385 4.70161 16.2573 0 10.4693 0ZM10.4693 14.2701C9.47762 14.2701 8.52658 13.8744 7.82538 13.1702C7.12418 12.4659 6.73025 11.5108 6.73025 10.5148C6.73025 9.51883 7.12418 8.56365 7.82538 7.8594C8.52658 7.15515 9.47762 6.75951 10.4693 6.75951C11.4609 6.75951 12.412 7.15515 13.1132 7.8594C13.8144 8.56365 14.2083 9.51883 14.2083 10.5148C14.2083 11.5108 13.8144 12.4659 13.1132 13.1702C12.412 13.8744 11.4609 14.2701 10.4693 14.2701Z" fill="#818181"/>
</svg>
